<svg xmlns="http://www.w3.org/2000/svg" viewBox="0 0 200 200">
  <defs>
    <linearGradient id="gradient" x1="0%" y1="0%" x2="100%" y2="100%">
      <stop offset="0%" stop-color="#f9d423" />
      <stop offset="100%" stop-color="#ff4e50" />
    </linearGradient>
  </defs>
  <path fill="url(#gradient)" d="M100 30C62.4 30 30 62.4 30 100s32.4 70 70 70 70-32.4 70-70S137.6 30 100 30zm0 125c-30.3 0-55-24.7-55-55s24.7-55 55-55 55 24.7 55 55-24.7 55-55 55z"/>
  <path fill="#fff" d="M100 50c-27.6 0-50 22.4-50 50s22.4 50 50 50 50-22.4 50-50-22.4-50-50-50zm0 90c-22.1 0-40-17.9-40-40s17.9-40 40-40 40 17.9 40 40-17.9 40-40 40z"/>
  <path fill="url(#gradient)" d="M100 70c-16.5 0-30 13.5-30 30s13.5 30 30 30 30-13.5 30-30-13.5-30-30-30zm0 50c-11 0-20-9-20-20s9-20 20-20 20 9 20 20-9 20-20 20z"/>
  <path fill="#fff" d="M115 100c0 8.3-6.7 15-15 15s-15-6.7-15-15 6.7-15 15-15 15 6.7 15 15z"/>
</svg>